<?xml version="1.0" encoding="UTF-8"?>
<svg id="Layer_1" data-name="Layer 1" xmlns="http://www.w3.org/2000/svg" xmlns:xlink="http://www.w3.org/1999/xlink" viewBox="0 0 49.67 51.98">
  <defs>
    <style>
      .cls-1 {
        fill: url(#linear-gradient);
      }
    </style>
    <linearGradient id="linear-gradient" x1="-6.6" y1="44.28" x2="40.74" y2="-3.06" gradientUnits="userSpaceOnUse">
      <stop offset="0" stop-color="#faed34"/>
      <stop offset="1" stop-color="#5bba47"/>
    </linearGradient>
  </defs>
  <path class="cls-1" d="M36.82,0c.96,.05,1.88,.17,2.77,.36,.89,.19,1.74,.46,2.56,.79l3.24,1.3c.14,.1,.26,.18,.36,.25,.1,.07,.19,.16,.29,.25,.14,.1,.25,.2,.32,.32,.07,.12,.25,.13,.54,.04,.05,0,.07,.02,.07,.07,.24,.34,.54,.6,.9,.79,.36,.19,.61,.48,.76,.86,.14,.38,.3,.72,.47,1.01,.17,.29,.3,.62,.4,1.01,.24,.82,.23,1.67-.04,2.56-.26,.89-.66,1.81-1.19,2.77-.24,.43-.54,.84-.9,1.22-.36,.38-.66,.79-.9,1.22-.1,.19-.19,.38-.29,.58-.1,.19-.26,.38-.5,.58-.38,.38-.78,.76-1.19,1.12-.41,.36-.85,.66-1.33,.9l-.43,.29v.22l.72-.36s.07,.1,.07,.14c-.24,.1-.49,.22-.76,.36-.26,.14-.52,.29-.76,.43l-1.66,.72c.24,.14,.5,.14,.79,0,.29-.14,.55-.17,.79-.07-.29,.24-.55,.38-.79,.43-.24,.05-.48,.12-.72,.22l-1.15,.36-1.94,.72v.72c-.29,.1-.58,.17-.86,.22-.29,.05-.6,.12-.94,.22-.29,.1-.59,.22-.9,.36-.31,.14-.61,.26-.9,.36v.22c.24-.1,.47-.17,.68-.22,.22-.05,.49-.12,.83-.22-.72,.34-1.39,.62-2.02,.86-.62,.24-1.25,.43-1.87,.58-.72,.14-1.44,.32-2.16,.54-.72,.22-1.44,.42-2.16,.61-.05,0-.12,.05-.22,.14l.22,.43-4.18,1.15c-.24,.1-.47,.16-.68,.18-.22,.02-.42-.01-.61-.11-.1-.05-.22-.08-.36-.11-.14-.02-.31,.06-.5,.25-.1,.1-.26,.14-.5,.14-.38-.1-.79-.08-1.22,.04-.43,.12-.89,.23-1.37,.32l-2.02,.5,.65,.22-1.15,.79c.14,.14,.29,.22,.43,.22s.55-.05,1.22-.14c-.1,.19-.19,.29-.29,.29h-.36c-.24,.05-.44,.07-.61,.07h-.61c-.24,.39-.17,.53,.22,.43,.43-.14,.89-.22,1.37-.22l-.36,.22c-.48,.1-.82,.23-1.01,.4-.19,.17-.41,.47-.65,.9l-.07,.14c.1,.29,.05,.58-.14,.86-.19,.29-.36,.55-.5,.79v.14l-.22,1.01c-.05,.19-.14,.37-.29,.54-.14,.17-.17,.35-.07,.54,0,.14-.02,.24-.07,.29-.24,.38-.4,.73-.47,1.04-.07,.31-.16,.64-.25,.97-.1,.43-.22,.88-.36,1.33-.14,.46-.29,.9-.43,1.33-.14,.48-.3,.95-.47,1.4-.17,.46-.28,.9-.32,1.33-.1,.67-.24,1.32-.43,1.94-.19,.62-.36,1.27-.5,1.94-.05,.24-.06,.44-.04,.61,.02,.17,.01,.35-.04,.54-.1,.48-.34,.77-.72,.86h-.07c-.58,.67-1.16,1.04-1.76,1.12-.6,.07-1.19,.2-1.76,.4-.29,.1-.59,.18-.9,.25-.31,.07-.61,.16-.9,.25-.29,.1-.59,.18-.9,.25-.31,.07-.61,.16-.9,.25-.14,0-.24-.02-.29-.07-.14,0-.24-.02-.29-.07-1.15-.43-1.51-1.37-1.08-2.81,.48-1.73,.97-3.44,1.48-5.15,.5-1.7,1.02-3.42,1.55-5.15l1.58-4.82c.34-.96,.62-1.94,.86-2.95,.1-.58,.26-1.15,.5-1.73,.24-.58,.48-1.15,.72-1.73,0-.14,.05-.22,.14-.22,.38-.24,.64-.53,.76-.86,.12-.34,.23-.65,.32-.94l3.38-7.34c.72-1.49,1.38-2.7,1.98-3.64,.6-.94,.91-1.63,.94-2.09,.02-.46-.34-.67-1.08-.65-.75,.02-2.08,.28-4,.76-.48,.1-.79-.05-.94-.43-.34-.91-.38-2.02-.14-3.31,.1-.53,.2-1.06,.32-1.58,.12-.53,.3-1.06,.54-1.58,.1-.38,.14-.67,.14-.86,.05-.19,.1-.36,.14-.5,.05-.14,.19-.31,.43-.5,.24,.1,.53,.1,.86,0,.33-.1,.69-.19,1.08-.29,.67-.24,1.36-.46,2.05-.65,.7-.19,1.38-.38,2.05-.58-.05,.14-.12,.22-.22,.22s-.19,.02-.29,.07c-.1,.05-.22,.1-.36,.14-.14,.05-.29,.12-.43,.22h.94c-.53,.34-1.04,.55-1.55,.65-.5,.1-1.02,.38-1.55,.86,.19,0,.36,.02,.5,.07,.14,.05,.29,.05,.43,0l5.33-1.08c.29-.1,.48-.19,.58-.29,.38-.29,.73-.46,1.04-.5,.31-.05,.66-.12,1.04-.22l5.76-.86c.62-.1,1.23-.19,1.84-.29,.6-.1,1.21-.19,1.84-.29,.24-.05,.44-.05,.61,0,.17,.05,.35,.07,.54,.07h2.48c.26,0,.54-.05,.83-.14,.67-.1,1.31-.12,1.91-.07,.6,.05,1.19,.12,1.76,.22l1.94,.29c.19,0,.38-.05,.58-.14l-1.3-.43c-.48-.1-.96-.18-1.44-.25-.48-.07-.96-.16-1.44-.25-.1,0-.17-.02-.22-.07-.05-.05-.12-.1-.22-.14ZM16.45,27.72l.14-.22c.48,.1,.97,.08,1.48-.04,.5-.12,1.02-.23,1.55-.32,.53-.1,1.04-.16,1.55-.18,.5-.02,1.09-.16,1.76-.4-.53-.24-.88-.36-1.04-.36s-.47,.05-.9,.14c-.67,.14-1.37,.29-2.09,.43-.72,.14-1.44,.31-2.16,.5-.24,.05-.4,.12-.47,.22-.07,.1-.16,.34-.25,.72l1.15-.22,.07-.14-.79-.14Zm.36,2.02v-.07l-.07,.07h.07Zm13.97-10.94c.72-.24,1.44-.48,2.16-.72,.72-.24,1.46-.5,2.23-.79l4.61-1.87c1.39-.62,2.62-1.61,3.67-2.95,.24-.38,.44-.73,.61-1.04,.17-.31,.18-.61,.04-.9-.38-.96-1.03-1.54-1.94-1.73l-.07-.07,.36-.29-.94-.14,.58-.36c-.24-.05-.49-.06-.76-.04-.26,.02-.53,.06-.79,.11-.26,.05-.53,.07-.79,.07s-.49-.05-.68-.14c.29,0,.58-.01,.86-.04,.29-.02,.65-.18,1.08-.47-.38-.05-.72-.08-1.01-.11-.29-.02-.58-.04-.86-.04-.34-.05-.67-.06-1.01-.04-.34,.02-.67,.04-1.01,.04-.72-.05-1.51,.02-2.38,.22-.77,.19-1.52,.36-2.27,.5-.74,.14-1.48,.29-2.2,.43-1.3,.24-2.28,.44-2.95,.61-.67,.17-1.2,.42-1.58,.76-.38,.34-.73,.78-1.04,1.33-.31,.55-.78,1.31-1.4,2.27-.34,.62-.65,1.24-.94,1.84-.29,.6-.6,1.19-.94,1.76-.86,1.06-1.57,2.17-2.12,3.35-.55,1.18-.82,2.14-.79,2.88,.02,.74,.44,1.16,1.26,1.26,.82,.1,2.21-.38,4.18-1.44,.43-.14,.86-.26,1.3-.36,.43-.1,.86-.34,1.3-.72,.14-.14,.33-.22,.58-.22l2.38-.65c.38-.1,.72-.31,1.01-.65-.34,.1-.62,.19-.86,.29-.24,.1-.48,.02-.72-.22l1.3-.5c.43-.1,.86-.22,1.3-.36l1.3-.43c.14-.05,.29-.11,.43-.18,.14-.07,.26-.23,.36-.47l-1.15,.22c-.34,.1-.66,.18-.97,.25-.31,.07-.54-.01-.68-.25Zm-7.2,7.13s.01-.07,.04-.07c.02,0,.04-.02,.04-.07l-.86,.22v.07c.14,0,.41-.05,.79-.14Zm4.32-1.3c-.14-.14-.34-.18-.58-.11-.24,.07-.48,.18-.72,.32l1.3-.22Zm0,0c.19-.05,.43-.07,.72-.07s.59-.04,.9-.11c.31-.07,.64-.23,.97-.47-.86-.14-1.73,.07-2.59,.65Zm3.6-1.08h-.47c-.17,0-.32,.12-.47,.36,.24-.05,.55-.17,.94-.36Z"/>
</svg>