<?xml version="1.0" encoding="UTF-8"?>
<svg id="Layer_1" data-name="Layer 1" xmlns="http://www.w3.org/2000/svg" xmlns:xlink="http://www.w3.org/1999/xlink" viewBox="0 0 267.05 65.26">
  <defs>
    <style>
      .cls-1 {
        fill: url(#linear-gradient-2);
      }

      .cls-2 {
        fill: url(#linear-gradient);
      }
    </style>
    <linearGradient id="linear-gradient" x1="21.52" y1="72.4" x2="104.81" y2="-10.89" gradientUnits="userSpaceOnUse">
      <stop offset="0" stop-color="#faed34"/>
      <stop offset="1" stop-color="#5bba47"/>
    </linearGradient>
    <linearGradient id="linear-gradient-2" x1="161.79" y1="68.26" x2="233.31" y2="-3.26" gradientUnits="userSpaceOnUse">
      <stop offset="0" stop-color="#fcd812"/>
      <stop offset="1" stop-color="#e61e25"/>
    </linearGradient>
  </defs>
  <path class="cls-2" d="M36.82,0c.96,.05,1.88,.17,2.77,.36,.89,.19,1.74,.46,2.56,.79l3.24,1.3c.14,.1,.26,.18,.36,.25,.1,.07,.19,.16,.29,.25,.14,.1,.25,.2,.32,.32,.07,.12,.25,.13,.54,.04,.05,0,.07,.02,.07,.07,.24,.34,.54,.6,.9,.79,.36,.19,.61,.48,.76,.86,.14,.38,.3,.72,.47,1.01,.17,.29,.3,.62,.4,1.01,.24,.82,.23,1.67-.04,2.56-.26,.89-.66,1.81-1.19,2.77-.24,.43-.54,.84-.9,1.22-.36,.38-.66,.79-.9,1.22-.1,.19-.19,.38-.29,.58-.1,.19-.26,.38-.5,.58-.38,.38-.78,.76-1.19,1.12-.41,.36-.85,.66-1.33,.9l-.43,.29v.22l.72-.36s.07,.1,.07,.14c-.24,.1-.49,.22-.76,.36-.26,.14-.52,.29-.76,.43l-1.66,.72c.24,.14,.5,.14,.79,0,.29-.14,.55-.17,.79-.07-.29,.24-.55,.38-.79,.43-.24,.05-.48,.12-.72,.22l-1.15,.36-1.94,.72v.72c-.29,.1-.58,.17-.86,.22-.29,.05-.6,.12-.94,.22-.29,.1-.59,.22-.9,.36-.31,.14-.61,.26-.9,.36v.22c.24-.1,.47-.17,.68-.22,.22-.05,.49-.12,.83-.22-.72,.34-1.39,.62-2.02,.86-.62,.24-1.25,.43-1.87,.58-.72,.14-1.44,.32-2.16,.54-.72,.22-1.44,.42-2.16,.61-.05,0-.12,.05-.22,.14l.22,.43-4.18,1.15c-.24,.1-.47,.16-.68,.18-.22,.02-.42-.01-.61-.11-.1-.05-.22-.08-.36-.11-.14-.02-.31,.06-.5,.25-.1,.1-.26,.14-.5,.14-.38-.1-.79-.08-1.22,.04-.43,.12-.89,.23-1.37,.32l-2.02,.5,.65,.22-1.15,.79c.14,.14,.29,.22,.43,.22s.55-.05,1.22-.14c-.1,.19-.19,.29-.29,.29h-.36c-.24,.05-.44,.07-.61,.07h-.61c-.24,.39-.17,.53,.22,.43,.43-.14,.89-.22,1.37-.22l-.36,.22c-.48,.1-.82,.23-1.01,.4-.19,.17-.41,.47-.65,.9l-.07,.14c.1,.29,.05,.58-.14,.86-.19,.29-.36,.55-.5,.79v.14l-.22,1.01c-.05,.19-.14,.37-.29,.54-.14,.17-.17,.35-.07,.54,0,.14-.02,.24-.07,.29-.24,.38-.4,.73-.47,1.04-.07,.31-.16,.64-.25,.97-.1,.43-.22,.88-.36,1.33-.14,.46-.29,.9-.43,1.33-.14,.48-.3,.95-.47,1.4-.17,.46-.28,.9-.32,1.33-.1,.67-.24,1.32-.43,1.94-.19,.62-.36,1.27-.5,1.94-.05,.24-.06,.44-.04,.61,.02,.17,.01,.35-.04,.54-.1,.48-.34,.77-.72,.86h-.07c-.58,.67-1.16,1.04-1.76,1.12-.6,.07-1.19,.2-1.76,.4-.29,.1-.59,.18-.9,.25-.31,.07-.61,.16-.9,.25-.29,.1-.59,.18-.9,.25-.31,.07-.61,.16-.9,.25-.14,0-.24-.02-.29-.07-.14,0-.24-.02-.29-.07-1.15-.43-1.51-1.37-1.08-2.81,.48-1.73,.97-3.44,1.48-5.15,.5-1.7,1.02-3.42,1.55-5.15l1.58-4.82c.34-.96,.62-1.94,.86-2.95,.1-.58,.26-1.15,.5-1.73,.24-.58,.48-1.15,.72-1.73,0-.14,.05-.22,.14-.22,.38-.24,.64-.53,.76-.86,.12-.34,.23-.65,.32-.94l3.38-7.34c.72-1.49,1.38-2.7,1.98-3.64,.6-.94,.91-1.63,.94-2.09,.02-.46-.34-.67-1.08-.65-.75,.02-2.08,.28-4,.76-.48,.1-.79-.05-.94-.43-.34-.91-.38-2.02-.14-3.31,.1-.53,.2-1.06,.32-1.58,.12-.53,.3-1.06,.54-1.58,.1-.38,.14-.67,.14-.86,.05-.19,.1-.36,.14-.5,.05-.14,.19-.31,.43-.5,.24,.1,.53,.1,.86,0,.33-.1,.69-.19,1.08-.29,.67-.24,1.36-.46,2.05-.65,.7-.19,1.38-.38,2.05-.58-.05,.14-.12,.22-.22,.22s-.19,.02-.29,.07c-.1,.05-.22,.1-.36,.14-.14,.05-.29,.12-.43,.22h.94c-.53,.34-1.04,.55-1.55,.65-.5,.1-1.02,.38-1.55,.86,.19,0,.36,.02,.5,.07,.14,.05,.29,.05,.43,0l5.33-1.08c.29-.1,.48-.19,.58-.29,.38-.29,.73-.46,1.04-.5,.31-.05,.66-.12,1.04-.22l5.76-.86c.62-.1,1.23-.19,1.84-.29,.6-.1,1.21-.19,1.84-.29,.24-.05,.44-.05,.61,0,.17,.05,.35,.07,.54,.07h2.48c.26,0,.54-.05,.83-.14,.67-.1,1.31-.12,1.91-.07,.6,.05,1.19,.12,1.76,.22l1.94,.29c.19,0,.38-.05,.58-.14l-1.3-.43c-.48-.1-.96-.18-1.44-.25-.48-.07-.96-.16-1.44-.25-.1,0-.17-.02-.22-.07-.05-.05-.12-.1-.22-.14ZM16.45,27.72l.14-.22c.48,.1,.97,.08,1.48-.04,.5-.12,1.02-.23,1.55-.32,.53-.1,1.04-.16,1.55-.18,.5-.02,1.09-.16,1.76-.4-.53-.24-.88-.36-1.04-.36s-.47,.05-.9,.14c-.67,.14-1.37,.29-2.09,.43-.72,.14-1.44,.31-2.16,.5-.24,.05-.4,.12-.47,.22-.07,.1-.16,.34-.25,.72l1.15-.22,.07-.14-.79-.14Zm.36,2.02v-.07l-.07,.07h.07Zm13.97-10.94c.72-.24,1.44-.48,2.16-.72,.72-.24,1.46-.5,2.23-.79l4.61-1.87c1.39-.62,2.62-1.61,3.67-2.95,.24-.38,.44-.73,.61-1.04,.17-.31,.18-.61,.04-.9-.38-.96-1.03-1.54-1.94-1.73l-.07-.07,.36-.29-.94-.14,.58-.36c-.24-.05-.49-.06-.76-.04-.26,.02-.53,.06-.79,.11-.26,.05-.53,.07-.79,.07s-.49-.05-.68-.14c.29,0,.58-.01,.86-.04,.29-.02,.65-.18,1.08-.47-.38-.05-.72-.08-1.01-.11-.29-.02-.58-.04-.86-.04-.34-.05-.67-.06-1.01-.04-.34,.02-.67,.04-1.01,.04-.72-.05-1.51,.02-2.38,.22-.77,.19-1.52,.36-2.27,.5-.74,.14-1.48,.29-2.2,.43-1.3,.24-2.28,.44-2.95,.61-.67,.17-1.2,.42-1.58,.76-.38,.34-.73,.78-1.04,1.33-.31,.55-.78,1.31-1.4,2.27-.34,.62-.65,1.24-.94,1.84-.29,.6-.6,1.19-.94,1.76-.86,1.06-1.57,2.17-2.12,3.35-.55,1.18-.82,2.14-.79,2.88,.02,.74,.44,1.16,1.26,1.26,.82,.1,2.21-.38,4.18-1.44,.43-.14,.86-.26,1.3-.36,.43-.1,.86-.34,1.3-.72,.14-.14,.33-.22,.58-.22l2.38-.65c.38-.1,.72-.31,1.01-.65-.34,.1-.62,.19-.86,.29-.24,.1-.48,.02-.72-.22l1.3-.5c.43-.1,.86-.22,1.3-.36l1.3-.43c.14-.05,.29-.11,.43-.18,.14-.07,.26-.23,.36-.47l-1.15,.22c-.34,.1-.66,.18-.97,.25-.31,.07-.54-.01-.68-.25Zm-7.2,7.13s.01-.07,.04-.07c.02,0,.04-.02,.04-.07l-.86,.22v.07c.14,0,.41-.05,.79-.14Zm4.32-1.3c-.14-.14-.34-.18-.58-.11-.24,.07-.48,.18-.72,.32l1.3-.22Zm0,0c.19-.05,.43-.07,.72-.07s.59-.04,.9-.11c.31-.07,.64-.23,.97-.47-.86-.14-1.73,.07-2.59,.65Zm3.6-1.08h-.47c-.17,0-.32,.12-.47,.36,.24-.05,.55-.17,.94-.36Zm36.94,7.63c.38,.05,.79,.29,1.22,.72-.05,.24-.2,.68-.47,1.33-.26,.65-.49,1.04-.68,1.19-.1,.05-.17,.11-.22,.18-.05,.07-.12,.13-.22,.18l-.79,.94c-.1,.1-.18,.18-.25,.25-.07,.07-.13,.16-.18,.25-.14,.34-.43,.62-.86,.86-.19,.1-.31,.19-.36,.29-.24,.24-.48,.47-.72,.68-.24,.22-.48,.44-.72,.68-.38,.34-.84,.58-1.37,.72-.34,.1-.65,.16-.94,.18-.29,.02-.58,.08-.86,.18-.24,.1-.5,.16-.79,.18-.29,.03-.58,.08-.86,.18h-.65c-.43-.14-.85-.28-1.26-.4-.41-.12-.8-.32-1.19-.61l-.36-.22c-.34-.14-.65-.31-.94-.5-.29-.19-.55-.43-.79-.72-.67,.34-1.18,.65-1.51,.94l-.79,.5-.14,.07c-.24,.29-.49,.48-.76,.58-.26,.1-.54,.19-.83,.29-1.1,.34-2.09,.26-2.95-.22-.19-.1-.37-.18-.54-.25-.17-.07-.35-.16-.54-.25-2.06-.86-3.22-2.42-3.46-4.68-.14-1.1,.05-2.18,.58-3.24,.24-.48,.49-.95,.76-1.4,.26-.46,.59-.88,.97-1.26,0-.05,.05-.12,.14-.22,.48-.72,1-1.42,1.55-2.09,.55-.67,1.09-1.34,1.62-2.02,.82-.86,1.73-1.61,2.74-2.23,.19-.1,.41-.14,.65-.14,.24-.05,.47-.08,.68-.11,.22-.02,.44-.04,.68-.04h.22c.24,.1,.49,.16,.76,.18,.26,.02,.52,.08,.76,.18,.19,.1,.33,.14,.43,.14,.19,.05,.35,.08,.47,.11,.12,.02,.23,.11,.32,.25l.14,.07c.19,0,.36,.06,.5,.18,.14,.12,.31,.18,.5,.18,.14,0,.26,.05,.36,.14,.24,.24,.47,.46,.68,.65,.22,.19,.4,.41,.54,.65l.22,.58c.14,.62-.07,1.1-.65,1.44-.34,.14-.65,.31-.94,.5-.29,.19-.58,.41-.86,.65v.07c-.38,.38-.79,.77-1.22,1.15-.43,.38-.82,.82-1.15,1.3l-.86,.94c-.34,.38-.64,.77-.9,1.15-.26,.38-.54,.77-.83,1.15l-.72,1.01c-.1,.1-.19,.24-.29,.43-.43,.82-.72,1.61-.86,2.38v.29l.29-.22c.82-.82,1.61-1.51,2.38-2.09,.48-.38,.84-.79,1.08-1.22l.58-.65c.24-.24,.46-.49,.65-.76,.19-.26,.38-.54,.58-.83l1.51-2.45c.72-.1,1.25,.07,1.58,.5l.43,.43c.24,.34,.4,.67,.47,1.01,.07,.34,.13,.7,.18,1.08,0,.05-.05,.17-.14,.36l-1.01,2.02c-.24,.53-.31,1.03-.22,1.51,.14,.67,.36,1.27,.65,1.8,.14,.24,.36,.36,.65,.36,.24-.05,.49-.1,.76-.14,.26-.05,.52-.12,.76-.22,.24-.1,.47-.2,.68-.32,.22-.12,.44-.25,.68-.4l1.58-.94,1.15-1.01c.48-.48,1.03-1.19,1.66-2.12,.62-.94,1.18-1.64,1.66-2.12l.22-.14Zm20.66,2.74c0,.43,.05,.75,.14,.94,.1,.19,.28,.29,.54,.29s.6-.06,1.01-.18c.41-.12,.95-.23,1.62-.32,.43-.1,.95-.25,1.55-.47,.6-.22,1.24-.66,1.91-1.33,.33-.33,.67-.38,1.01-.14,.34,.24,.6,.46,.79,.65,0,.1-.05,.23-.14,.4-.1,.17-.2,.36-.32,.58-.12,.22-.24,.41-.36,.58-.12,.17-.2,.28-.25,.32-.77,.43-1.45,.78-2.05,1.04-.6,.26-1.16,.46-1.69,.58-.53,.12-1.03,.22-1.51,.29-.48,.07-1.01,.13-1.58,.18-.91,.24-1.49,.59-1.73,1.04-.24,.46-.53,1.04-.86,1.76l-.29,.58c-.1,.43-.25,.82-.47,1.15-.22,.34-.42,.67-.61,1.01-.1,.1-.17,.18-.22,.25-.05,.07-.12,.13-.22,.18l-.72,.86c-.14,.24-.32,.49-.54,.76-.22,.26-.44,.49-.68,.68l-.5,.58-.72,.65c-.24,.1-.46,.1-.65,0-.1-.1-.22-.18-.36-.25-.14-.07-.26-.13-.36-.18-.05-.14-.07-.36-.07-.65-.1-.34-.2-.62-.32-.86-.12-.24-.35-.38-.68-.43-.14-.1-.28-.2-.4-.32-.12-.12-.23-.23-.32-.32-.14-.24-.28-.41-.4-.5-.12-.1-.28-.19-.47-.29-.34-.24-.53-.6-.58-1.08-.05-.48,.07-.96,.36-1.44,.24-.53,.6-.96,1.08-1.3,.38-.33,.86-.62,1.44-.86,.43-.29,.85-.47,1.26-.54,.41-.07,.85-.23,1.33-.47,.48-.29,.86-.82,1.15-1.58,.24-.96,.49-2.05,.76-3.28,.26-1.22,.44-2.32,.54-3.28v-2.45c0-.19-.02-.34-.07-.43-.05-.19-.14-.31-.29-.36-.14-.05-.26,0-.36,.14-.14,.05-.24,.17-.29,.36-.24,.38-.48,.78-.72,1.19-.24,.41-.46,.83-.65,1.26-.53,1.06-1.06,2.12-1.58,3.2-.53,1.08-1.06,2.12-1.58,3.13-.38,.77-.76,1.5-1.12,2.2-.36,.7-.71,1.45-1.04,2.27-.29,.67-.64,1.33-1.04,1.98-.41,.65-.83,1.3-1.26,1.94-.43,.65-.84,1.31-1.22,1.98-.38,.67-.7,1.37-.94,2.09-.1,.24-.19,.48-.29,.72-.1,.24-.26,.43-.5,.58-.19,.1-.32,.25-.4,.47s-.11,.44-.11,.68c0,.58-.07,1.08-.22,1.51-.19,.38-.34,.62-.43,.72-.24,.24-.41,.46-.5,.65-.1,.19-.19,.38-.29,.58-.38,.91-.7,1.82-.94,2.74-.24,.91-.41,1.85-.5,2.81-.05,.43-.08,.86-.11,1.3-.02,.43-.08,.86-.18,1.3-.1,.72-.38,1.18-.86,1.37-.38,.24-.67,.6-.86,1.08-.05,.05-.11,.12-.18,.22-.07,.1-.13,.14-.18,.14-.1,0-.17,.1-.22,.29-.05,.19-.12,.33-.22,.43h-.07c-.58,.1-1.04-.05-1.4-.43-.36-.38-.66-.91-.9-1.58-.24-.67-.4-1.38-.47-2.12-.07-.75-.13-1.48-.18-2.2-.1-1.73-.1-3.43,0-5.11,.1-1.68,.26-3.38,.5-5.11,.1-.67,.2-1.36,.32-2.05,.12-.7,.23-1.38,.32-2.05,.14-1.1,.34-2.21,.58-3.31,.24-1.1,.5-2.18,.79-3.24,.77-3.17,1.63-6.26,2.59-9.29,.1-.38,.22-.74,.36-1.08,.14-.33,.26-.72,.36-1.15,.43-1.1,.84-2.22,1.22-3.35,.38-1.13,.79-2.24,1.22-3.35,.19-.53,.42-1.09,.68-1.69,.26-.6,.52-1.16,.76-1.69,.34-.29,.7-.29,1.08,0l1.73,1.08,.07,.07c1.1,1.3,1.75,2.98,1.94,5.04,.14,1.1,.07,2.28-.22,3.53-.24,.86-.48,1.75-.72,2.66-.24,.91-.53,1.82-.86,2.74-.24,.58-.46,1.2-.65,1.87-.19,.67-.41,1.34-.65,2.02-.29,1.01-.38,1.75-.29,2.23,.1,.48,.26,.78,.5,.9,.24,.12,.5,.08,.79-.11,.29-.19,.5-.43,.65-.72,.1-.29,.35-.72,.76-1.3,.41-.58,.66-1.06,.76-1.44l2.38-4.9c.34-.86,.77-1.63,1.3-2.3,.24-.29,.49-.6,.76-.94,.26-.33,.54-.65,.83-.94,.53-.53,1.06-.79,1.58-.79h1.22c.34-.1,.65-.02,.94,.22,.29,.24,.58,.48,.86,.72,.38,.24,.62,.7,.72,1.37,.05,.29,.1,.59,.14,.9,.05,.31,.07,.59,.07,.83l.29,2.09,.07,2.66Zm-6.34,4.97c-.38,.19-.74,.3-1.08,.32-.34,.03-.67,.16-1.01,.4-.48,.24-.72,.77-.72,1.58,.1,.43,.26,.65,.5,.65,.1-.1,.18-.14,.25-.14s.16-.05,.25-.14c.43-.24,.74-.53,.94-.86,.38-.53,.65-1.02,.79-1.48,.14-.46,.17-.56,.07-.32Zm20.38-8.28c-.05,.19-.12,.36-.22,.5-.1,.14-.14,.34-.14,.58,0,.14-.1,.26-.29,.36-.14,.14-.22,.26-.22,.36-.05,.24-.17,.38-.36,.43-.1,.05-.17,.24-.22,.58,.14,0,.24,.03,.29,.07v.07h-.5c.05-.14,.07-.34,.07-.58h-.14l-.22,1.51,.29,.14c.05,.24,.07,.48,.07,.72v.72c0,.38,.1,.82,.29,1.3,.1,.14,.26,.5,.5,1.08,.24,.58,.41,.94,.5,1.08,.53,.53,1.08,1.04,1.66,1.55,.58,.5,1.15,.78,1.73,.83,.1,0,.28-.01,.54-.04,.26-.02,.55-.06,.86-.11,.31-.05,.6-.1,.86-.14,.26-.05,.44-.07,.54-.07,1.63-.48,3.29-1.37,4.97-2.66,.62-.48,1.22-.97,1.8-1.48s1.18-1.02,1.8-1.55l.22-.22,1.3-1.44c.38-.38,.76-.78,1.12-1.19,.36-.41,.71-.85,1.04-1.33,.1-.19,.2-.36,.32-.5,.12-.14,.3-.26,.54-.36-.1,.34-.18,.65-.25,.94-.07,.29-.18,.58-.32,.86-.1,.24-.22,.43-.36,.58-.24,.24-.44,.48-.61,.72-.17,.24-.32,.5-.47,.79l-.72,.86-.29,.43,.58-.22c-.05,.24-.13,.4-.25,.47-.12,.07-.2,.21-.25,.4,.05,.05,.07,.08,.07,.11s.05,.06,.14,.11c-.1,.19-.21,.35-.32,.47-.12,.12-.25,.25-.4,.4-.43,.38-.84,.79-1.22,1.22-.34,.38-.67,.72-1.01,1.01-.34,.29-.7,.58-1.08,.86-.19,.14-.36,.29-.5,.43-.14,.14-.31,.26-.5,.36l-.86,.58c-.24,.1-.46,.21-.65,.32-.19,.12-.41,.25-.65,.4-.82,.48-1.58,.79-2.3,.94l-.65,.22c-.77,.24-1.63,.41-2.59,.5-.24,.05-.66,.04-1.26-.04-.6-.07-1.22-.17-1.87-.29-.65-.12-1.26-.24-1.84-.36-.58-.12-.98-.23-1.22-.32-1.25-.53-2.11-1.07-2.59-1.62-.48-.55-1.01-1.09-1.58-1.62-.43-.33-.77-.84-1.01-1.51-.19-.48-.31-.97-.36-1.48-.05-.5-.1-1.02-.14-1.55,0-1.1,.13-2.2,.4-3.28,.26-1.08,.64-2.12,1.12-3.13,.1-.24,.16-.4,.18-.47,.02-.07,.01-.28-.04-.61-.19,.1-.34,.19-.43,.29-.1,.1-.19,.26-.29,.5-.19,.53-.48,1.15-.86,1.87,0-.33,.06-.62,.18-.86,.12-.24,.23-.48,.32-.72,.62-1.39,1.3-2.62,2.02-3.67,.77-1.2,1.66-2.3,2.66-3.31,1.06-1.15,2.14-2.06,3.24-2.74l.72-.36c.48-.19,.79-.14,.94,.14,.1,.1,.2,.14,.32,.14s.23,.05,.32,.14c.1,.1,.17,.19,.22,.29,.05,.1,.12,.19,.22,.29,.19,.1,.48,.2,.86,.32,.38,.12,.79,.25,1.22,.4,.43,.14,.84,.29,1.22,.43,.38,.14,.65,.26,.79,.36,.14,.1,.31,.34,.5,.72,.19,.34,.37,.66,.54,.97,.17,.31,.37,.59,.61,.83,.1,.1,.16,.2,.18,.32,.02,.12,.06,.23,.11,.32,.1,.43,.14,.85,.14,1.26s-.05,.85-.14,1.33c-.1,.53-.24,1.02-.43,1.48-.19,.46-.41,.9-.65,1.33-.14,.24-.29,.48-.43,.72-.14,.24-.26,.5-.36,.79-.1,.24-.2,.48-.32,.72-.12,.24-.25,.48-.4,.72-.29,.58-.72,.94-1.3,1.08-.43,.24-.89,.31-1.37,.22-.1-.05-.19-.07-.29-.07s-.19-.07-.29-.22l-.07-.07c-.29,.05-.53-.05-.72-.29-.19-.24-.41-.41-.65-.5-.1-.1-.14-.22-.14-.36,.1-.14,.12-.26,.07-.36-.05-.1-.1-.19-.14-.29-.14-.29-.29-.59-.43-.9-.14-.31-.31-.61-.5-.9-.1-.29-.26-.31-.5-.07Zm-7.06,7.49l-.14,.07,.22,.58c0,.1,.04,.19,.11,.29,.07,.1,.06,.22-.04,.36l-.14-.14c-.19-.38-.32-.79-.4-1.22-.07-.43-.16-.89-.25-1.37v-.22c0-.53,.01-1.06,.04-1.58,.02-.53,.11-1.06,.25-1.58,.1-.29,.14-.5,.14-.65v-.5c-.24,.48-.38,.82-.43,1.01l-.22,1.01c-.14,.96-.18,1.86-.11,2.7,.07,.84,.3,1.65,.68,2.41,.1,.14,.19,.28,.29,.4,.1,.12,.19,.25,.29,.4,.1,.14,.26,.24,.5,.29h.22c-.1-.19-.19-.36-.29-.5-.1-.14-.19-.31-.29-.5-.1-.24-.17-.46-.22-.65-.05-.19-.12-.38-.22-.58Zm0-4.75c-.1,.1-.14,.17-.14,.22-.19,.58-.29,1.14-.29,1.69s.05,1.09,.14,1.62l.14,.14,.22-2.23c.05-.24,.07-.48,.07-.72s-.05-.48-.14-.72Zm10.94-7.85c-.38,.29-.73,.65-1.04,1.08-.31,.43-.64,.84-.97,1.22l-.5,.79c-.29,.48-.24,.84,.14,1.08,.1,.1,.2,.18,.32,.25,.12,.07,.23,.16,.32,.25,.24,.24,.49,.37,.76,.4,.26,.02,.54,.01,.83-.04,.24-.1,.46-.25,.65-.47,.19-.22,.36-.44,.5-.68,.24-.62,.44-1.07,.61-1.33,.17-.26,.37-.71,.61-1.33,.29-.67,.38-1.15,.29-1.44-.1-.29-.29-.46-.58-.5-.29-.05-.61,.01-.97,.18-.36,.17-.68,.35-.97,.54Zm19.51,9.65c-.29,.86-.32,1.34-.11,1.44,.22,.1,.5,0,.86-.29s.72-.67,1.08-1.15c.36-.48,.59-.86,.68-1.15,.05-.29,.23-.77,.54-1.44,.31-.67,.65-1.39,1.01-2.16,.36-.77,.71-1.48,1.04-2.12,.34-.65,.58-1.09,.72-1.33,.24-.34,.46-.66,.65-.97,.19-.31,.38-.66,.58-1.04,.48-.67,.86-1.27,1.15-1.8,.29-.48,.67-.77,1.15-.86,.24,0,.47-.01,.68-.04,.22-.02,.44-.04,.68-.04,.43,0,.78,.14,1.04,.43,.26,.29,.52,.67,.76,1.15v.29l.5,2.95c.1,.48,.13,.96,.11,1.44-.02,.48-.04,.96-.04,1.44,0,.34,.01,.66,.04,.97,.02,.31,.01,.64-.04,.97,.19,.1,.29,.21,.29,.32s.02,.16,.07,.11c.1-.1,.23-.11,.4-.04,.17,.07,.3,.06,.4-.04l.29-.36c.14-.1,.29-.2,.43-.32,.14-.12,.29-.28,.43-.47,.19-.33,.43-.33,.72,0,0,.24-.1,.43-.29,.58l-.22,.36c-.1,.29-.24,.46-.43,.5l-.22,.22-.22,.22-.22,.14c-.24,.24-.5,.36-.79,.36-.19,0-.41,.1-.65,.29-.24,.14-.43,.14-.58,0-.24-.14-.49-.25-.76-.32-.26-.07-.52-.16-.76-.25-.43-.1-.8-.32-1.12-.68-.31-.36-.56-.8-.76-1.33-.24-.67-.36-1.36-.36-2.05s.05-1.38,.14-2.05c.1-.33,.14-.65,.14-.94s.02-.58,.07-.86l.22-1.3c.1-.24,.12-.5,.07-.79-.14,0-.22,.02-.22,.07l-.29,.36-1.01,1.8c-.24,.38-.38,.82-.43,1.3,.05,.14,.04,.28-.04,.4-.07,.12-.13,.23-.18,.32-.34,.62-.64,1.24-.9,1.84-.26,.6-.52,1.24-.76,1.91-.19,.53-.4,1.01-.61,1.44-.22,.43-.44,.91-.68,1.44-.34,.77-.68,1.5-1.04,2.2-.36,.7-.66,1.45-.9,2.27-.1,.24-.21,.5-.32,.79-.12,.29-.23,.58-.32,.86l-.4,.79c-.22,.43-.44,.89-.68,1.37-.24,.48-.49,.92-.76,1.33-.26,.41-.44,.66-.54,.76,0,.1-.04,.16-.11,.18-.07,.03-.16,.08-.25,.18-.43,.62-.9,.96-1.4,1.01s-1.04,0-1.62-.14c-.1,.1-.24,.05-.43-.14-.58-.14-1.02-.47-1.33-.97-.31-.5-.54-1.12-.68-1.84-.1-.62-.16-1.25-.18-1.87-.02-.62-.04-1.25-.04-1.87,.05-.96,.08-1.9,.11-2.81,.02-.91,.08-1.85,.18-2.81,.1-.53,.16-.94,.18-1.22,.02-.29,.05-.55,.07-.79,.02-.24,.06-.49,.11-.76,.05-.26,.14-.64,.29-1.12,.14-.72,.24-1.26,.29-1.62,.05-.36,.1-.68,.14-.97,.05-.29,.13-.61,.25-.97,.12-.36,.3-.9,.54-1.62,.05-.24,.12-.47,.22-.68,.1-.22,.19-.44,.29-.68,.24-.67,.48-1.3,.72-1.87,.24-.58,.5-1.15,.79-1.73,.14-.48,.3-.78,.47-.9,.17-.12,.44-.13,.83-.04,.24,0,.52,.02,.83,.07,.31,.05,.64,.12,.97,.22,.24,.05,.47,.12,.68,.22,.22,.1,.47,.26,.76,.5,.24,.48,.53,.9,.86,1.26,.34,.36,.7,.76,1.08,1.19,.33,.58,.54,1.12,.61,1.62,.07,.5-.01,1.09-.25,1.76-.1,.38-.18,.62-.25,.72-.07,.1-.13,.17-.18,.22-.05,.05-.11,.12-.18,.22-.07,.1-.16,.34-.25,.72-.48,1.54-1.08,2.93-1.8,4.18-.72,1.25-1.27,2.57-1.66,3.96Z"/>
  <path class="cls-1" d="M173.76,11.49c-.58,.34-1.15,.53-1.73,.58-.58,.05-1.13,.12-1.66,.22-.1,.05-.17,.06-.22,.04-.05-.02-.1-.04-.14-.04-.38,0-.75,.01-1.08,.04-.34,.02-.67,.06-1.01,.11-1.54,.19-2.65,.32-3.35,.4-.7,.07-1.19,.22-1.48,.43s-.49,.56-.61,1.04c-.12,.48-.42,1.22-.9,2.23-.38,.86-.34,1.58,.14,2.16,.48,.58,1.73,.72,3.74,.43,.67-.1,1.37-.19,2.09-.29,.72-.1,1.42-.14,2.09-.14l-1.66,.22c.14,.05,.24,.1,.29,.14,.05,.05,.12,.07,.22,.07,.91-.19,1.8-.29,2.66-.29s1.75-.07,2.66-.22h-3.31c.43-.14,.96-.24,1.58-.29,.62-.05,1.27-.06,1.94-.04,.67,.02,1.31,.07,1.91,.14,.6,.07,1.07,.16,1.4,.25v.4c0,.12-.1,.23-.29,.32-.1,.1-.14,.17-.14,.22-.1,.48-.34,.82-.72,1.01-.38,.19-.77,.41-1.15,.65-.14,.1-.3,.21-.47,.32-.17,.12-.3,.25-.4,.4-.1,.19-.22,.3-.36,.32-.14,.02-.29,.08-.43,.18-1.39,.29-2.74,.67-4.03,1.15-.43,.19-.89,.32-1.37,.4-.48,.07-.96,.16-1.44,.25l-.58,.14-2.52,.86c-1.44,.53-2.51,.94-3.2,1.22-.7,.29-1.24,.64-1.62,1.04-.38,.41-.71,.98-.97,1.73-.26,.74-.71,1.86-1.33,3.35-.24,.53-.54,1.27-.9,2.23-.36,.96-.73,1.96-1.12,2.99-.38,1.03-.76,2.03-1.12,2.99-.36,.96-.66,1.7-.9,2.23-.14,.38-.28,.76-.4,1.12s-.23,.73-.32,1.12c-.19,.67-.36,1.36-.5,2.05-.14,.7-.29,1.38-.43,2.05,0,.14-.05,.36-.14,.65-.38,.1-.76,.18-1.12,.25s-.73,.16-1.12,.25c-.38,.1-.71,.14-.97,.14s-.56-.02-.9-.07l-1.3-.5-1.37-.58c-.19-.1-.38-.18-.58-.25-.19-.07-.36-.16-.5-.25-.82-.58-.96-1.39-.43-2.45,.1-.24,.17-.47,.22-.68,.05-.22,.12-.44,.22-.68l.65-3.1c.05-.19,.11-.36,.18-.5,.07-.14,.13-.31,.18-.5,.1-.24,.17-.49,.22-.76,.05-.26,.1-.54,.14-.83,.05-.48,.16-1.16,.32-2.05,.17-.89,.34-1.82,.5-2.81,.17-.98,.3-1.92,.4-2.81,.1-.89,.12-1.55,.07-1.98-.1-.33-.18-.66-.25-.97-.07-.31-.16-.64-.25-.97,0-.14-.05-.24-.14-.29-.1-.1-.2-.16-.32-.18-.12-.02-.2-.08-.25-.18-.1-.1-.17-.19-.22-.29-.05-.1-.17-.17-.36-.22-.24,0-.31-.17-.22-.5,.1-.19,.13-.35,.11-.47-.02-.12-.06-.25-.11-.4-.33-.91-.33-1.97,0-3.17,.05-.1,.11-.19,.18-.29,.07-.1,.13-.19,.18-.29h.14c.43,.38,.73,.56,.9,.54,.17-.02,.4-.35,.68-.97,.19-.29,.31-.5,.36-.65l.36-.29c.1,.14,.18,.28,.25,.4,.07,.12,.13,.25,.18,.4,.19,.48,.36,.76,.5,.83,.14,.07,.5,.06,1.08-.04,.38-.05,.77-.08,1.15-.11,.38-.02,.77-.08,1.15-.18,.43,.53,.86,.48,1.3-.14,.19-.19,.33-.41,.43-.65,.53-1.25,1.01-2.29,1.44-3.13,.43-.84,.71-1.56,.83-2.16,.12-.6,.02-1.1-.29-1.51-.31-.41-.97-.78-1.98-1.12-.19-.05-.36-.16-.5-.32-.14-.17-.26-.32-.36-.47-.14-.19-.28-.38-.4-.58-.12-.19-.23-.41-.32-.65l-.36-.72c-.1-.19-.21-.4-.32-.61-.12-.22-.13-.47-.04-.76,.1-.1,.1-.22,0-.36-.19-.53-.22-1.07-.07-1.62,.14-.55,.26-1.09,.36-1.62,0-.34,.24-.55,.72-.65,.1,0,.14,.02,.14,.07,.29,.43,.82,.65,1.58,.65l4.61,.29c0,.14-.02,.29-.07,.43-.19,.05-.38,.07-.58,.07h-.58l-2.16,.14c-.1,0-.18,.02-.25,.07-.07,.05-.2,.12-.4,.22,.29,.1,.54,.17,.76,.22,.22,.05,.42,.07,.61,.07,.43,.05,.86,.08,1.3,.11,.43,.02,.89,.04,1.37,.04,.38,0,.64-.05,.76-.14,.12-.1,.18-.34,.18-.72v-.5c.33-.24,.7-.22,1.08,.07,.1,.1,.2,.18,.32,.25,.12,.07,.3,.04,.54-.11-.05,.14-.1,.26-.14,.36-.05,.1-.05,.19,0,.29,.1,.1,.26,.14,.5,.14l7.2-.36c.29,0,.59-.02,.9-.07,.31-.05,.59-.02,.83,.07,.58,.14,1.17,.19,1.8,.14,.62-.05,1.25-.1,1.87-.14,.19,0,.42-.04,.68-.11,.26-.07,.52-.13,.76-.18,.14,.05,.29,.1,.43,.14,.14,.05,.29,.07,.43,.07h1.4c.46,0,.92-.02,1.4-.07,.62-.05,1.22-.08,1.8-.11,.58-.02,1.17-.04,1.8-.04,.58,0,1.01-.22,1.3-.65-.1-.19-.19-.33-.29-.43,.05-.1,.23-.2,.54-.32,.31-.12,.52-.13,.61-.04l.43,.5c.1,.19,.19,.29,.29,.29,.24,.05,.41,.17,.5,.36,.1,.19,.19,.36,.29,.5,.29,.38,.26,.86-.07,1.44-.14,.24-.22,.4-.22,.47s.05,.23,.14,.47l-1.44,.86h.65c-.1,.38-.19,.64-.29,.76-.1,.12-.34,.13-.72,.04-.38-.05-.77,.07-1.15,.36-.34,.24-.67,.44-1.01,.61-.34,.17-.7,.2-1.08,.11l1.58-.72-1.37,.22c-.34,.05-.41,.22-.22,.5-.24,0-.36-.07-.36-.22v-.5c.1,0,.18-.01,.25-.04,.07-.02,.16-.04,.25-.04l-.07-.14c-.53-.05-1.03-.06-1.51-.04-.48,.02-.98,.13-1.51,.32-.29,.1-.59,.16-.9,.18-.31,.02-.64,.06-.97,.11-.43,.1-.88,.14-1.33,.14s-.88,.14-1.26,.43h.94Zm-2.45,.29s-.01-.07-.04-.07-.04-.02-.04-.07l-.36,.14v.14l.43-.14Zm1.44-.29c-.38,.1-.6,.14-.65,.14,.24,.19,.46,.14,.65-.14Zm8.5,13.18c.19,.1,.34,.12,.43,.07l.07-.07c.1-.14,.19-.24,.29-.29,.1-.05,.19-.12,.29-.22,.19-.05,.44-.14,.76-.29,.31-.14,.62-.29,.94-.43,.31-.14,.61-.25,.9-.32,.29-.07,.53-.06,.72,.04,.1,.14,.29,.3,.58,.47,.29,.17,.5,.32,.65,.47,.29,.38,.34,.91,.14,1.58-.24,.48-.48,.95-.72,1.4-.24,.46-.5,.97-.79,1.55l-.36,1.08c-.14,.34-.29,.7-.43,1.08-.14,.38-.31,.74-.5,1.08-.1,.24-.1,.28,0,.11,.1-.17,.22-.37,.36-.61,.14-.24,.28-.46,.4-.65,.12-.19,.16-.19,.11,0,0,.1-.02,.19-.07,.29-.05,.1-.1,.19-.14,.29-.14,.38-.25,.66-.32,.83s-.13,.32-.18,.47c-.05,.14-.08,.29-.11,.43-.02,.14-.04,.38-.04,.72,0,.19-.01,.53-.04,1.01-.02,.48-.06,1-.11,1.55-.05,.55-.07,1.07-.07,1.55v.94c.05,.24,.13,.44,.25,.61,.12,.17,.23,.32,.32,.47,.14,.1,.3,.19,.47,.29,.17,.1,.37,.19,.61,.29,.19,.14,.37,.21,.54,.18,.17-.02,.37-.06,.61-.11,1.49-.53,2.54-1,3.17-1.4,.62-.41,1.09-.85,1.4-1.33,.31-.48,.62-1.02,.94-1.62,.31-.6,.9-1.36,1.76-2.27,.33-.48,.67-.95,1.01-1.4,.34-.46,.6-.97,.79-1.55,0-.05,.01-.08,.04-.11,.02-.02,.08-.13,.18-.32,.1,.19,.13,.38,.11,.58-.02,.19-.05,.38-.07,.58-.02,.19,0,.36,.07,.5,.07,.14,.23,.24,.47,.29-.38,.67-.74,1.42-1.08,2.23-.34,.82-.7,1.6-1.08,2.34-.38,.75-.8,1.44-1.26,2.09-.46,.65-1,1.14-1.62,1.48-.19,.24-.6,.64-1.22,1.19-.62,.55-1.37,1.09-2.23,1.62-.86,.53-1.78,.94-2.74,1.22-.96,.29-1.83,.29-2.59,0-.53,.19-1.03,.12-1.51-.22-.48-.33-.98-.62-1.51-.86-.67-.29-1.37-.82-2.09-1.58-.19-.48-.36-.96-.5-1.44-.14-.48-.22-.96-.22-1.44-.1-.24-.14-.47-.14-.68v-.61c.1-.43,.14-.98,.14-1.66s.07-1.15,.22-1.44c.05-.19,.1-.37,.14-.54,.05-.17,.07-.37,.07-.61,.1-.05,.14-.13,.14-.25s.12-.2,.36-.25c.05,0,.08-.05,.11-.14,.02-.1,.06-.17,.11-.22,.19-.24,.32-.48,.4-.72,.07-.24,.2-.48,.4-.72-.24,.24-.46,.43-.65,.58-.38,.29-.38,.12,0-.5,.29-.72,.68-1.44,1.19-2.16s.88-1.34,1.12-1.87c0-.1,.02-.17,.07-.22,0-.05,.02-.1,.07-.14,.1-.24,.19-.44,.29-.61,.1-.17,.1-.37,0-.61-.05-.24,.02-.58,.22-1.01Zm7.49-8.35c-.1,.1-.17,.19-.22,.29-.05,.1-.12,.19-.22,.29s-.17,.19-.22,.29c-.05,.1-.1,.22-.14,.36,0,.14-.05,.26-.14,.36l-.72,.86c-.1,.1-.25,.2-.47,.32-.22,.12-.42,.2-.61,.25-.14-.05-.31,.02-.5,.22-.34,.24-.67,.26-1.01,.07-.14-.1-.34-.14-.58-.14-.34,0-.6-.02-.79-.07l.22-.29c0-.1,.02-.2,.07-.32,.05-.12,.1-.25,.14-.4,.1-.19,.18-.35,.25-.47,.07-.12,.16-.28,.25-.47,0-.1,.04-.17,.11-.22,.07-.05,.11-.1,.11-.14,0-.24,.07-.44,.22-.61,.14-.17,.26-.37,.36-.61l.43-.65c.19-.19,.34-.29,.43-.29,.14-.1,.26-.1,.36,0,0,.14,.1,.17,.29,.07,.14-.1,.24-.12,.29-.07,.14,.1,.3,.16,.47,.18,.17,.02,.32,.06,.47,.11,.48,.19,.86,.55,1.15,1.08Zm34.2,15.34c.05,.1,.02,.19-.07,.29-.1,.14-.17,.42-.22,.83-.05,.41-.1,.71-.14,.9-.05,.1-.14,.19-.29,.29-.14,.1-.26,.19-.36,.29-.05,.1-.2,.2-.47,.32-.26,.12-.55,.23-.86,.32-.31,.1-.61,.18-.9,.25s-.46,.11-.5,.11c-.19,.1-.43,.11-.72,.04-.29-.07-.58-.18-.86-.32-.29-.14-.55-.29-.79-.43-.24-.14-.38-.22-.43-.22-.14-.1-.31-.22-.5-.36l-.58-.43c-.05-.1-.26-.31-.65-.65-.38-.34-.62-.55-.72-.65-.34-.62-.61-1.09-.83-1.4-.22-.31-.49-.76-.83-1.33-.34,.43-.53,.74-.58,.94-.05,.19-.22,.58-.5,1.15-.29,.53-.55,1.08-.79,1.66-.24,.58-.55,1.15-.94,1.73-.1,.1-.17,.18-.22,.25s-.12,.16-.22,.25c-.19,.62-.6,1.25-1.22,1.87-.38,.48-.72,1.1-1.01,1.87,0,.05-.01,.11-.04,.18-.03,.07-.04,.13-.04,.18,.05,.24,.01,.46-.11,.65-.12,.19-.23,.41-.32,.65-.48,.58-.84,1.13-1.08,1.66-.24,.53-.48,.98-.72,1.37-.24,.38-.62,.75-1.15,1.08-.24,.29-.53,.43-.86,.43s-.6-.02-.79-.07c-.19,0-.4,.01-.61,.04-.22,.02-.44,.06-.68,.11-.53,.24-1.01,.29-1.44,.14-.43-.14-.77-.48-1.01-1.01-.05-.14-.21-.32-.47-.54-.26-.22-.55-.44-.86-.68-.31-.24-.61-.47-.9-.68-.29-.22-.48-.37-.58-.47-.24-.24-.52-.68-.83-1.33-.31-.65-.42-1.14-.32-1.48,0-.29,.02-.56,.07-.83,.05-.26,.1-.52,.14-.76,.14-.53,.26-1.1,.36-1.73,.1-.62,.22-1.22,.36-1.8l.58-2.66c.24-1.01,.47-1.99,.68-2.95,.22-.96,.44-1.92,.68-2.88,.19-.58,.35-1.13,.47-1.66,.12-.53,.23-1.08,.32-1.66,.05-.33,.08-.67,.11-1.01,.02-.34,.08-.67,.18-1.01l.07-1.01c.05-.1,.07-.19,.07-.29s.05-.19,.14-.29c.24-.14,.48-.1,.72,.14,.05,.1,.11,.18,.18,.25,.07,.07,.13,.13,.18,.18,.14,.19,.23,.31,.25,.36,.02,.05,.16,.07,.4,.07,.1,0,.19,.04,.29,.11,.1,.07,.14,.13,.14,.18,.19,.34,.42,.6,.68,.79,.26,.19,.52,.41,.76,.65,.14,.29,.31,.54,.5,.76,.19,.22,.31,.52,.36,.9-.29,0-.53-.02-.72-.07-.1,.24-.16,.44-.18,.61-.02,.17,.01,.37,.11,.61,.19,.38,.3,.77,.32,1.15,.02,.38,.06,.79,.11,1.22,0,.19,.01,.37,.04,.54,.02,.17,.04,.3,.04,.4,.14,.43,.23,.88,.25,1.33,.02,.46,.04,.9,.04,1.33v.58c.05,.38,.07,.74,.07,1.08v1.08c-.05,.29-.06,.58-.04,.86,.02,.29,.06,.55,.11,.79,0,.24-.01,.41-.04,.5-.03,.1-.08,.26-.18,.5l-.22-.07-.14-.94-.22-.22s-.08-.02-.11-.07c-.02-.05-.06-.02-.11,.07-.1,0-.14,.07-.14,.22v1.12c0,.36,.02,.73,.07,1.12,.05,.19,.08,.38,.11,.58,.02,.19,.01,.38-.04,.58-.05,.29,0,.5,.14,.65,.05,0,.11,.01,.18,.04,.07,.02,.13,.01,.18-.04,.14,0,.17-.1,.07-.29-.05-.19-.05-.41,0-.65s.12-.48,.22-.72l.14-.14s.01,.08,.04,.11c.02,.02,.04,.08,.04,.18,.09,.24,.14,.44,.14,.61v.54l.14,.43v.14s.02,.07,.07,.07c-.19,.24-.23,.42-.11,.54,.12,.12,.2,.28,.25,.47l.36-.29c.53-.67,1.06-1.32,1.58-1.94s1.03-1.32,1.51-2.09l1.08-1.51c.48-.58,.86-1.3,1.15-2.16,.14-.58,.38-1.1,.72-1.58,.19-.48,.35-.79,.47-.94,.12-.14,.24-.25,.36-.32,.12-.07,.22-.16,.29-.25,.07-.1,.18-.36,.32-.79,0-.05-.01-.18-.04-.4-.02-.22-.06-.44-.11-.68-.05-.24-.11-.46-.18-.65-.07-.19-.11-.34-.11-.43,0-.67-.03-1.07-.07-1.19-.05-.12,.14-.23,.58-.32,.14,0,.46,.05,.94,.14,.48,.1,.77,.19,.86,.29,.24,.1,.33,.17,.29,.22-.05,.05,.05,.07,.29,.07,.14-.05,.28-.05,.4,0,.12,.05,.23,.1,.32,.14,.14,.05,.24,.17,.29,.36,0,.1,.01,.17,.04,.22,.02,.05,.06,.12,.11,.22,.1,.72,.19,1.31,.29,1.76,.1,.46,.2,.86,.32,1.22,.12,.36,.25,.71,.4,1.04,.14,.34,.31,.75,.5,1.22,.14,.14,.31,.35,.5,.61,.19,.26,.41,.52,.65,.76s.49,.46,.76,.65c.26,.19,.59,.24,.97,.14,.38-.1,.68-.2,.9-.32,.22-.12,.52-.23,.9-.32,.33-.1,.64-.29,.9-.58,.26-.29,.56-.53,.9-.72,.05-.05,.12-.07,.22-.07Zm-21.24-.22l.07,.14h.07c.05-.1,.07-.24,.07-.43l-.22,.29Zm.14,.65l-.07-.07-.07,.07c0,.1,.02,.17,.07,.22v-.14s.02-.07,.07-.07Zm.14-1.01v-.36c-.1-.1-.17-.12-.22-.07v.22l.22,.22Zm0,1.73s-.03-.07-.07-.07v.07h.07Zm.43,7.27s-.07-.12-.07-.22c-.1,.19-.14,.26-.14,.22,0,.05,.02,.07,.07,.07,.05-.05,.1-.07,.14-.07Zm-.07-.72l.07-.14c.19-.1,.19-.19,0-.29h-.07s-.01,.08-.04,.11c-.02,.03-.04,.08-.04,.18,.05,.05,.07,.1,.07,.14Zm26.5-9.43c-.05,.19-.12,.36-.22,.5-.1,.14-.14,.34-.14,.58,0,.14-.1,.26-.29,.36-.14,.14-.22,.26-.22,.36-.05,.24-.17,.38-.36,.43-.1,.05-.17,.24-.22,.58,.14,0,.24,.03,.29,.07v.07h-.5c.05-.14,.07-.34,.07-.58h-.14l-.22,1.51,.29,.14c.05,.24,.07,.48,.07,.72v.72c0,.38,.1,.82,.29,1.3,.1,.14,.26,.5,.5,1.08s.41,.94,.5,1.08c.53,.53,1.08,1.04,1.66,1.55,.58,.5,1.15,.78,1.73,.83,.1,0,.28-.01,.54-.04,.26-.02,.55-.06,.86-.11,.31-.05,.6-.1,.86-.14,.26-.05,.44-.07,.54-.07,1.63-.48,3.29-1.37,4.97-2.66,.62-.48,1.22-.97,1.8-1.48,.58-.5,1.18-1.02,1.8-1.55l.22-.22,1.3-1.44c.38-.38,.76-.78,1.12-1.19,.36-.41,.71-.85,1.04-1.33,.1-.19,.2-.36,.32-.5,.12-.14,.3-.26,.54-.36-.1,.34-.18,.65-.25,.94-.07,.29-.18,.58-.32,.86-.1,.24-.22,.43-.36,.58-.24,.24-.44,.48-.61,.72-.17,.24-.32,.5-.47,.79l-.72,.86-.29,.43,.58-.22c-.05,.24-.13,.4-.25,.47-.12,.07-.21,.21-.25,.4,.05,.05,.07,.08,.07,.11s.05,.06,.14,.11c-.1,.19-.21,.35-.32,.47-.12,.12-.25,.25-.4,.4-.43,.38-.84,.79-1.22,1.22-.34,.38-.67,.72-1.01,1.01-.34,.29-.7,.58-1.08,.86-.19,.14-.36,.29-.5,.43s-.31,.26-.5,.36l-.86,.58c-.24,.1-.46,.21-.65,.32-.19,.12-.41,.25-.65,.4-.82,.48-1.58,.79-2.3,.94l-.65,.22c-.77,.24-1.63,.41-2.59,.5-.24,.05-.66,.04-1.26-.04-.6-.07-1.22-.17-1.87-.29-.65-.12-1.26-.24-1.84-.36-.58-.12-.98-.23-1.22-.32-1.25-.53-2.11-1.07-2.59-1.62-.48-.55-1.01-1.09-1.58-1.62-.43-.33-.77-.84-1.01-1.51-.19-.48-.31-.97-.36-1.48-.05-.5-.1-1.02-.14-1.55,0-1.1,.13-2.2,.4-3.28,.26-1.08,.64-2.12,1.12-3.13,.1-.24,.16-.4,.18-.47,.02-.07,.01-.28-.04-.61-.19,.1-.34,.19-.43,.29-.1,.1-.19,.26-.29,.5-.19,.53-.48,1.15-.86,1.87,0-.33,.06-.62,.18-.86,.12-.24,.23-.48,.32-.72,.62-1.39,1.3-2.62,2.02-3.67,.77-1.2,1.66-2.3,2.66-3.31,1.06-1.15,2.14-2.06,3.24-2.74l.72-.36c.48-.19,.79-.14,.94,.14,.09,.1,.2,.14,.32,.14s.23,.05,.32,.14c.1,.1,.17,.19,.22,.29,.05,.1,.12,.19,.22,.29,.19,.1,.48,.2,.86,.32,.38,.12,.79,.25,1.22,.4,.43,.14,.84,.29,1.22,.43,.38,.14,.65,.26,.79,.36,.14,.1,.31,.34,.5,.72,.19,.34,.37,.66,.54,.97,.17,.31,.37,.59,.61,.83,.1,.1,.16,.2,.18,.32,.02,.12,.06,.23,.11,.32,.1,.43,.14,.85,.14,1.26s-.05,.85-.14,1.33c-.1,.53-.24,1.02-.43,1.48-.19,.46-.41,.9-.65,1.33-.14,.24-.29,.48-.43,.72-.14,.24-.26,.5-.36,.79-.1,.24-.21,.48-.32,.72-.12,.24-.25,.48-.4,.72-.29,.58-.72,.94-1.3,1.08-.43,.24-.89,.31-1.37,.22-.1-.05-.19-.07-.29-.07s-.19-.07-.29-.22l-.07-.07c-.29,.05-.53-.05-.72-.29-.19-.24-.41-.41-.65-.5-.1-.1-.14-.22-.14-.36,.1-.14,.12-.26,.07-.36-.05-.1-.1-.19-.14-.29-.14-.29-.29-.59-.43-.9-.14-.31-.31-.61-.5-.9-.1-.29-.26-.31-.5-.07Zm-7.06,7.49l-.14,.07,.22,.58c0,.1,.04,.19,.11,.29,.07,.1,.06,.22-.04,.36l-.14-.14c-.19-.38-.32-.79-.4-1.22-.07-.43-.15-.89-.25-1.37v-.22c0-.53,.01-1.06,.04-1.58,.03-.53,.11-1.06,.25-1.58,.1-.29,.14-.5,.14-.65v-.5c-.24,.48-.38,.82-.43,1.01l-.22,1.01c-.14,.96-.18,1.86-.11,2.7,.07,.84,.3,1.65,.68,2.41,.1,.14,.19,.28,.29,.4,.1,.12,.19,.25,.29,.4,.1,.14,.26,.24,.5,.29h.22c-.1-.19-.19-.36-.29-.5-.1-.14-.19-.31-.29-.5-.1-.24-.17-.46-.22-.65-.05-.19-.12-.38-.22-.58Zm0-4.75c-.1,.1-.14,.17-.14,.22-.19,.58-.29,1.14-.29,1.69s.05,1.09,.14,1.62l.14,.14,.22-2.23c.05-.24,.07-.48,.07-.72s-.05-.48-.14-.72Zm10.94-7.85c-.38,.29-.73,.65-1.04,1.08-.31,.43-.64,.84-.97,1.22l-.5,.79c-.29,.48-.24,.84,.14,1.08,.1,.1,.2,.18,.32,.25,.12,.07,.23,.16,.32,.25,.24,.24,.49,.37,.76,.4,.26,.02,.54,.01,.83-.04,.24-.1,.46-.25,.65-.47,.19-.22,.36-.44,.5-.68,.24-.62,.44-1.07,.61-1.33,.17-.26,.37-.71,.61-1.33,.29-.67,.38-1.15,.29-1.44-.1-.29-.29-.46-.58-.5-.29-.05-.61,.01-.97,.18-.36,.17-.68,.35-.97,.54Zm14.33,31.9c.24-.34,.46-.64,.65-.9,.19-.26,.41-.54,.65-.83-.14,0-.25,.01-.32,.04-.07,.02-.28,.16-.61,.4v-.22c-.1-.05-.17-.12-.22-.22-.1,.1-.18,.16-.25,.18-.07,.02-.13,.08-.18,.18-.19,.14-.37,.24-.54,.29-.17,.05-.37,.12-.61,.22-.1,.05-.26,.02-.5-.07l.14-.36c-.1,0-.19,.02-.29,.07-.1,.05-.19,.07-.29,.07-.1,.14-.22,.22-.36,.22-.48,.29-.86,.17-1.15-.36-.1-.24-.17-.46-.22-.65-.05-.19-.14-.36-.29-.5-.24-.29-.38-.61-.43-.97-.05-.36-.12-.73-.22-1.12,0-.38,.07-.77,.22-1.15,.1-.48,.25-.92,.47-1.33,.22-.41,.47-.83,.76-1.26,1.2-1.73,2.45-3.17,3.74-4.32,.67-.62,1.16-1.15,1.48-1.58,.31-.43,.5-.84,.58-1.22,.07-.38,.04-.78-.11-1.19-.14-.41-.31-.88-.5-1.4-.24-.82-.52-1.55-.83-2.2-.31-.65-.66-1.31-1.04-1.98-.05-.14-.11-.28-.18-.4-.07-.12-.13-.25-.18-.4-.14-.24-.34-.71-.58-1.4-.24-.7-.47-1.44-.68-2.23-.22-.79-.4-1.55-.54-2.27-.14-.72-.22-1.25-.22-1.58,.1-.1,.13-.18,.11-.25-.02-.07,.01-.18,.11-.32-.05-.38,.07-.82,.36-1.3,.05-.1,.1-.24,.14-.43,.05-.19,.03-.38-.07-.58,.1-.19,.18-.4,.25-.61,.07-.22,.16-.42,.25-.61,.1-.19,.17-.35,.22-.47,.05-.12,.12-.3,.22-.54,.1-.1,.17-.2,.22-.32,.05-.12,.12-.23,.22-.32l.65-1.3c.14-.29,.31-.55,.5-.79,.19-.24,.36-.48,.5-.72,.05-.05,.14-.12,.29-.22,.19-.1,.33-.26,.43-.5,.24-.29,.41-.38,.5-.29,.48,.24,.91,.53,1.3,.86,.05,0,.1,.02,.14,.07,.14,.1,.32,.3,.54,.61,.22,.31,.42,.67,.61,1.08,.19,.41,.36,.82,.5,1.22,.14,.41,.22,.73,.22,.97,0,.29,.05,.48,.14,.58v.65c0,.19-.05,.41-.14,.65-.1,.29-.18,.6-.25,.94-.07,.34-.18,.65-.32,.94-.1,.14-.17,.26-.22,.36-.05,.1-.14,.17-.29,.22-.24,.14-.43,.38-.58,.72-.05,.1-.12,.2-.22,.32-.1,.12-.12,.28-.07,.47v.07l-.07,.14-.58,1.15c-.14,.38-.22,.84-.22,1.37s.05,.94,.14,1.22c.1,.19,.22,.37,.36,.54,.14,.17,.26,.3,.36,.4,.24,.19,.47,.49,.68,.9,.22,.41,.43,.83,.65,1.26s.42,.85,.61,1.26c.19,.41,.38,.71,.58,.9,.19,.14,.31,.37,.36,.68,.05,.31,.14,.54,.29,.68,.14,.38,.4,.59,.76,.61,.36,.03,.76-.06,1.19-.25,.43-.19,.9-.41,1.4-.65s1-.43,1.48-.58c.53-.38,1.07-.78,1.62-1.19,.55-.41,1.09-.83,1.62-1.26,.77-.58,1.54-1.2,2.3-1.87,.24-.24,.47-.48,.68-.72,.22-.24,.44-.48,.68-.72l1.08-1.22,.29,.72c.19,.53,.17,.96-.07,1.3-.05,.1-.1,.19-.14,.29-.05,.1-.07,.19-.07,.29-.14,.48-.36,.94-.65,1.37-.19,.24-.35,.48-.47,.72-.12,.24-.28,.48-.47,.72l-.94,.86-1.51,1.3-.29,.29c-.38,.24-.77,.52-1.15,.83-.38,.31-.77,.61-1.15,.9l-.79,.65c-.38,.29-.78,.52-1.19,.68-.41,.17-.79,.34-1.15,.5-.36,.17-.66,.4-.9,.68s-.36,.67-.36,1.15c.05,.38,.09,.66,.14,.83,.05,.17,.07,.34,.07,.5s-.04,.36-.11,.58-.16,.54-.25,.97c.05,.1,.05,.19,0,.29-.05,.1-.05,.19,0,.29-.05,.1-.07,.17-.07,.22v.07c-.14,.24-.2,.52-.18,.83,.02,.31-.01,.59-.11,.83-.1,.14-.22,.26-.36,.36l-.22,.14c-.14,.24-.3,.47-.47,.68-.17,.22-.3,.44-.4,.68-.1,.19-.28,.46-.54,.79-.26,.33-.54,.67-.83,1.01s-.58,.65-.86,.94l-.65,.65-.58,.72c-.14,.24-.35,.42-.61,.54s-.52,.23-.76,.32l-.14,.14c-.38,.43-.84,.7-1.37,.79l-.29,.22Zm-.79-8.14c-.24,.24-.48,.38-.72,.43-.48,.14-.84,.5-1.08,1.08-.19,.43-.43,.74-.72,.94-.38,.38-.62,.7-.72,.94-.05,.24-.07,.44-.07,.61s-.05,.35-.14,.54c-.14,.38-.1,.69,.14,.94l.86,1.01c.29,.19,.55,.17,.79-.07l.86-.72,.86-.94c.67-.53,1.2-1.18,1.58-1.94,.1-.1,.16-.18,.18-.25,.02-.07,.06-.16,.11-.25,.33-.53,.62-1.15,.86-1.87,.19-.34,.3-.67,.32-1.01,.02-.34,.11-.7,.25-1.08,.05,0,.07-.07,.07-.22,0-.58-.14-.84-.43-.79-.29,.05-.61,.23-.97,.54-.36,.31-.74,.7-1.15,1.15-.41,.46-.71,.78-.9,.97Z"/>
</svg>